<?xml version="1.0"?>
<svg width="121" height="18" xmlns="http://www.w3.org/2000/svg" xmlns:svg="http://www.w3.org/2000/svg">
 <g class="layer">
  <title>Layer 1</title>
  <path d="m1.47,16.18l0,-2.81c1.68,0.62 3.58,0.93 5.7,0.93c2.57,0 3.86,-0.86 3.86,-2.58c0,-1.25 -0.79,-1.87 -2.37,-1.87l-2.63,0c-3.43,0 -5.15,-1.56 -5.15,-4.69c0,-3.44 2.44,-5.16 7.33,-5.16c1.88,0 3.66,0.27 5.34,0.82l0,2.81c-1.68,-0.62 -3.46,-0.93 -5.34,-0.93c-2.81,0 -4.22,0.82 -4.22,2.46c0,1.25 0.68,1.87 2.04,1.87l2.63,0c3.65,0 5.48,1.57 5.48,4.69c0,3.52 -2.33,5.28 -6.97,5.28c-2.12,0 -4.02,-0.27 -5.7,-0.82z" fill="#ffffff" id="svg_1"/>
  <path d="m27.99,0.12l0,2.69l-4.81,0l0,14.07l-3.11,0l0,-14.07l-4.81,0l0,-2.69l12.73,0z" fill="#ffffff" id="svg_2"/>
  <path d="m31.73,16.88l-3.2,0l7.13,-16.76l3.34,0l7.27,16.76l-3.34,0l-1.91,-4.57l-5.58,0l1.07,-2.7l3.38,0l-2.64,-6.29l-5.52,13.56z" fill="#ffffff" id="svg_3"/>
  <path d="m48.57,16.86l0,-16.74l7.62,0c3.43,0 5.14,1.49 5.14,4.49c0,2.02 -1.33,3.7 -4,5.03l5.32,7.24l-3.92,0l-5.1,-7.3l0,-1.42c2.97,-0.51 4.45,-1.66 4.45,-3.46c0,-1.23 -0.69,-1.85 -2.08,-1.85l-4.26,0l0,14.01l-3.17,0z" fill="#ffffff" id="svg_4"/>
  <path d="m64.6,16.88l0,-16.76l2.17,0l10.27,13.5l0,-13.5l2.05,0l0,16.76l-2.17,0l-10.27,-13.62l0,13.62l-2.05,0z" fill="#ffffff" id="svg_5"/>
  <path d="m83.88,16.88l-2.25,0l7.12,-16.76l2.41,0l7.16,16.76l-2.41,0l-2.17,-5.27l-5.55,0l0.6,-1.76l4.22,0l-3.13,-7.6l-6,14.63z" fill="#ffffff" id="svg_6"/>
  <path d="m115.83,0.12l-7.12,16.76l-2.41,0l-7.16,-16.76l2.29,0l6.15,14.51l6,-14.51l2.25,0z" fill="#ffffff" id="svg_7"/>
  <path d="m120.88,0.12l0,16.76l-2.17,0l0,-16.76l2.17,0z" fill="#ffffff" id="svg_8"/>
 </g>
</svg>